<svg width="814" height="100" viewBox="0 0 814 100" fill="none" xmlns="http://www.w3.org/2000/svg">
<path d="M17.856 97L1.44 3.4H26.784L31.968 44.296C32.448 49.192 32.976 54.088 33.552 58.984C34.128 63.88 34.656 68.776 35.136 73.672H35.712C36.576 68.776 37.44 63.88 38.304 58.984C39.168 54.088 40.032 49.192 40.896 44.296L49.824 3.4H70.56L79.488 44.296C80.352 49 81.216 53.848 82.08 58.84C82.944 63.736 83.808 68.68 84.672 73.672H85.248C85.728 68.68 86.256 63.736 86.832 58.84C87.408 53.944 87.936 49.096 88.416 44.296L93.6 3.4H117.216L101.664 97H70.272L63.072 59.848C62.304 56.2 61.632 52.504 61.056 48.76C60.576 45.016 60.096 41.416 59.616 37.96H59.04C58.56 41.416 58.032 45.016 57.456 48.76C56.976 52.504 56.352 56.2 55.584 59.848L48.672 97H17.856Z" stroke="white" stroke-width="2"/>
<path d="M129.055 97V3.4H153.824V38.248H181.76V3.4H206.527V97H181.76V59.848H153.824V97H129.055Z" stroke="white" stroke-width="2"/>
<path d="M251.404 51.496L249.82 57.976H267.1L265.516 51.496C264.364 46.984 263.212 42.088 262.06 36.808C260.908 31.528 259.756 26.536 258.604 21.832H258.028C256.972 26.632 255.868 31.672 254.716 36.952C253.66 42.136 252.556 46.984 251.404 51.496ZM215.404 97L243.916 3.4H273.868L302.38 97H276.172L271.564 77.128H245.356L240.748 97H215.404Z" stroke="white" stroke-width="2"/>
<path d="M317.63 97V24.136H292.862V3.4H367.166V24.136H342.398V97H317.63Z" stroke="white" stroke-width="2"/>
<path d="M417.372 97L400.956 3.4H426.3L431.484 44.296C431.964 49.192 432.492 54.088 433.068 58.984C433.644 63.88 434.172 68.776 434.652 73.672H435.228C436.092 68.776 436.956 63.88 437.82 58.984C438.684 54.088 439.548 49.192 440.412 44.296L449.34 3.4H470.076L479.004 44.296C479.868 49 480.732 53.848 481.596 58.84C482.46 63.736 483.324 68.68 484.188 73.672H484.764C485.244 68.68 485.772 63.736 486.348 58.84C486.924 53.944 487.452 49.096 487.932 44.296L493.116 3.4H516.732L501.18 97H469.788L462.588 59.848C461.82 56.2 461.148 52.504 460.572 48.76C460.092 45.016 459.612 41.416 459.132 37.96H458.556C458.076 41.416 457.548 45.016 456.972 48.76C456.492 52.504 455.868 56.2 455.1 59.848L448.188 97H417.372Z" stroke="white" stroke-width="2"/>
<path d="M528.571 97V3.4H589.051V24.136H553.339V38.824H583.867V59.56H553.339V76.264H590.491V97H528.571Z" stroke="white" stroke-width="2"/>
<path d="M637.415 97V3.4H665.063C672.167 3.4 678.647 4.264 684.503 5.992C690.455 7.72001 695.543 10.456 699.767 14.2C703.991 17.944 707.255 22.744 709.559 28.6C711.959 34.456 713.159 41.512 713.159 49.768C713.159 58.024 712.007 65.128 709.703 71.08C707.399 77.032 704.135 81.928 699.911 85.768C695.783 89.608 690.839 92.44 685.079 94.264C679.415 96.088 673.223 97 666.503 97H637.415ZM662.183 77.128H663.623C666.983 77.128 670.151 76.744 673.127 75.976C676.103 75.112 678.647 73.672 680.759 71.656C682.967 69.64 684.695 66.856 685.943 63.304C687.191 59.752 687.815 55.24 687.815 49.768C687.815 44.296 687.191 39.832 685.943 36.376C684.695 32.92 682.967 30.232 680.759 28.312C678.647 26.392 676.103 25.096 673.127 24.424C670.151 23.656 666.983 23.272 663.623 23.272H662.183V77.128Z" stroke="white" stroke-width="2"/>
<path d="M769.261 98.728C762.733 98.728 756.782 97.624 751.406 95.416C746.126 93.208 741.566 90.04 737.726 85.912C733.982 81.688 731.054 76.552 728.942 70.504C726.83 64.36 725.773 57.448 725.773 49.768C725.773 42.088 726.83 35.272 728.942 29.32C731.054 23.272 733.982 18.232 737.726 14.2C741.566 10.072 746.126 6.952 751.406 4.84C756.782 2.728 762.733 1.672 769.261 1.672C775.693 1.672 781.598 2.728 786.974 4.84C792.35 6.952 796.91 10.072 800.654 14.2C804.494 18.328 807.469 23.368 809.581 29.32C811.693 35.272 812.75 42.088 812.75 49.768C812.75 57.448 811.693 64.36 809.581 70.504C807.469 76.552 804.494 81.688 800.654 85.912C796.91 90.04 792.35 93.208 786.974 95.416C781.598 97.624 775.693 98.728 769.261 98.728ZM769.261 77.416C774.925 77.416 779.342 74.968 782.51 70.072C785.774 65.08 787.406 58.312 787.406 49.768C787.406 41.224 785.774 34.648 782.51 30.04C779.342 25.336 774.925 22.984 769.261 22.984C763.597 22.984 759.134 25.336 755.87 30.04C752.702 34.648 751.117 41.224 751.117 49.768C751.117 58.312 752.702 65.08 755.87 70.072C759.134 74.968 763.597 77.416 769.261 77.416Z" stroke="white" stroke-width="2"/>
</svg>
