<svg width="814" height="99" viewBox="0 0 814 99" fill="none" xmlns="http://www.w3.org/2000/svg">
<path d="M17.856 96L1.44 2.4H26.784L31.968 43.296C32.448 48.192 32.976 53.088 33.552 57.984C34.128 62.88 34.656 67.776 35.136 72.672H35.712C36.576 67.776 37.44 62.88 38.304 57.984C39.168 53.088 40.032 48.192 40.896 43.296L49.824 2.4H70.56L79.488 43.296C80.352 48 81.216 52.848 82.08 57.84C82.944 62.736 83.808 67.68 84.672 72.672H85.248C85.728 67.68 86.256 62.736 86.832 57.84C87.408 52.944 87.936 48.096 88.416 43.296L93.6 2.4H117.216L101.664 96H70.272L63.072 58.848C62.304 55.2 61.632 51.504 61.056 47.76C60.576 44.016 60.096 40.416 59.616 36.96H59.04C58.56 40.416 58.032 44.016 57.456 47.76C56.976 51.504 56.352 55.2 55.584 58.848L48.672 96H17.856Z" stroke="white"/>
<path d="M129.055 96V2.4H153.824V37.248H181.76V2.4H206.527V96H181.76V58.848H153.824V96H129.055Z" stroke="white"/>
<path d="M251.404 50.496L249.82 56.976H267.1L265.516 50.496C264.364 45.984 263.212 41.088 262.06 35.808C260.908 30.528 259.756 25.536 258.604 20.832H258.028C256.972 25.632 255.868 30.672 254.716 35.952C253.66 41.136 252.556 45.984 251.404 50.496ZM215.404 96L243.916 2.4H273.868L302.38 96H276.172L271.564 76.128H245.356L240.748 96H215.404Z" stroke="white"/>
<path d="M317.63 96V23.136H292.862V2.4H367.166V23.136H342.398V96H317.63Z" stroke="white"/>
<path d="M417.372 96L400.956 2.4H426.3L431.484 43.296C431.964 48.192 432.492 53.088 433.068 57.984C433.644 62.88 434.172 67.776 434.652 72.672H435.228C436.092 67.776 436.956 62.88 437.82 57.984C438.684 53.088 439.548 48.192 440.412 43.296L449.34 2.4H470.076L479.004 43.296C479.868 48 480.732 52.848 481.596 57.84C482.46 62.736 483.324 67.68 484.188 72.672H484.764C485.244 67.68 485.772 62.736 486.348 57.84C486.924 52.944 487.452 48.096 487.932 43.296L493.116 2.4H516.732L501.18 96H469.788L462.588 58.848C461.82 55.2 461.148 51.504 460.572 47.76C460.092 44.016 459.612 40.416 459.132 36.96H458.556C458.076 40.416 457.548 44.016 456.972 47.76C456.492 51.504 455.868 55.2 455.1 58.848L448.188 96H417.372Z" stroke="white"/>
<path d="M528.571 96V2.4H589.051V23.136H553.339V37.824H583.867V58.56H553.339V75.264H590.491V96H528.571Z" stroke="white"/>
<path d="M637.415 96V2.4H665.063C672.167 2.4 678.647 3.264 684.503 4.992C690.455 6.72001 695.543 9.456 699.767 13.2C703.991 16.944 707.255 21.744 709.559 27.6C711.959 33.456 713.159 40.512 713.159 48.768C713.159 57.024 712.007 64.128 709.703 70.08C707.399 76.032 704.135 80.928 699.911 84.768C695.783 88.608 690.839 91.44 685.079 93.264C679.415 95.088 673.223 96 666.503 96H637.415ZM662.183 76.128H663.623C666.983 76.128 670.151 75.744 673.127 74.976C676.103 74.112 678.647 72.672 680.759 70.656C682.967 68.64 684.695 65.856 685.943 62.304C687.191 58.752 687.815 54.24 687.815 48.768C687.815 43.296 687.191 38.832 685.943 35.376C684.695 31.92 682.967 29.232 680.759 27.312C678.647 25.392 676.103 24.096 673.127 23.424C670.151 22.656 666.983 22.272 663.623 22.272H662.183V76.128Z" stroke="white"/>
<path d="M769.261 97.728C762.733 97.728 756.782 96.624 751.406 94.416C746.126 92.208 741.566 89.04 737.726 84.912C733.982 80.688 731.054 75.552 728.942 69.504C726.83 63.36 725.773 56.448 725.773 48.768C725.773 41.088 726.83 34.272 728.942 28.32C731.054 22.272 733.982 17.232 737.726 13.2C741.566 9.072 746.126 5.952 751.406 3.84C756.782 1.728 762.733 0.671997 769.261 0.671997C775.693 0.671997 781.598 1.728 786.974 3.84C792.35 5.952 796.91 9.072 800.654 13.2C804.494 17.328 807.469 22.368 809.581 28.32C811.693 34.272 812.75 41.088 812.75 48.768C812.75 56.448 811.693 63.36 809.581 69.504C807.469 75.552 804.494 80.688 800.654 84.912C796.91 89.04 792.35 92.208 786.974 94.416C781.598 96.624 775.693 97.728 769.261 97.728ZM769.261 76.416C774.925 76.416 779.342 73.968 782.51 69.072C785.774 64.08 787.406 57.312 787.406 48.768C787.406 40.224 785.774 33.648 782.51 29.04C779.342 24.336 774.925 21.984 769.261 21.984C763.597 21.984 759.134 24.336 755.87 29.04C752.702 33.648 751.117 40.224 751.117 48.768C751.117 57.312 752.702 64.08 755.87 69.072C759.134 73.968 763.597 76.416 769.261 76.416Z" stroke="white"/>
</svg>
